<?xml version="1.0" standalone="no"?>
<!DOCTYPE svg PUBLIC "-//W3C//DTD SVG 20010904//EN"
 "http://www.w3.org/TR/2001/REC-SVG-20010904/DTD/svg10.dtd">
<svg version="1.0" xmlns="http://www.w3.org/2000/svg"
 width="417.000000pt" height="562.000000pt" viewBox="0 0 417.000000 562.000000"
 preserveAspectRatio="xMidYMid meet">
<metadata>
Created by potrace 1.15, written by Peter Selinger 2001-2017
</metadata>
<g transform="translate(0.000000,562.000000) scale(0.100000,-0.100000)"
fill="#000000" stroke="none">
<path d="M2328 5196 c-57 -20 -127 -69 -188 -131 -47 -47 -60 -55 -92 -55 -53
0 -87 -16 -138 -64 -25 -24 -89 -66 -142 -94 -103 -54 -195 -114 -215 -140 -7
-9 -13 -25 -13 -36 0 -12 -5 -38 -11 -59 -11 -42 -45 -64 -144 -92 -90 -26
-125 -46 -132 -73 -3 -14 -3 -78 1 -144 5 -96 12 -135 37 -204 45 -122 68
-139 118 -85 l28 30 19 -25 19 -25 59 21 c64 23 79 20 51 -10 -68 -75 -337
-60 -422 25 -40 40 -43 76 -9 110 28 28 18 45 -30 45 -50 0 -94 -56 -94 -120
0 -39 6 -56 33 -92 18 -24 53 -54 77 -68 48 -26 99 -29 365 -20 54 2 102 -2
120 -9 52 -21 9 -31 -133 -30 -113 1 -137 -2 -153 -17 -29 -26 -34 -77 -13
-120 27 -54 69 -66 227 -66 l128 0 -68 -45 c-37 -25 -74 -51 -81 -58 -11 -10
-25 -9 -75 7 -82 26 -203 21 -265 -11 -32 -16 -43 -18 -47 -9 -2 7 -13 51 -24
98 -50 202 -188 405 -300 438 -74 23 -142 15 -220 -24 -88 -44 -93 -66 -20
-92 26 -10 56 -24 68 -32 21 -14 18 -15 -47 -15 -59 0 -75 -4 -116 -30 -52
-33 -87 -79 -71 -94 6 -5 30 -11 55 -14 25 -3 58 -9 73 -12 l28 -8 -38 -17
c-50 -22 -100 -80 -109 -125 -9 -49 0 -68 28 -58 13 4 51 8 84 8 50 0 68 -5
97 -25 58 -42 78 -76 92 -153 27 -149 80 -246 166 -300 41 -25 49 -35 44 -51
-19 -69 -19 -75 11 -81 101 -22 150 -58 164 -120 l8 -37 -30 6 c-29 6 -89 46
-202 135 -175 138 -362 145 -493 18 -60 -58 -57 -67 25 -67 l67 -1 -53 -25
c-55 -27 -107 -85 -119 -132 -9 -37 6 -43 75 -30 45 8 65 9 73 1 8 -8 3 -13
-18 -17 -67 -15 -118 -105 -111 -196 4 -55 27 -64 66 -27 57 52 111 61 157 25
15 -11 46 -51 70 -88 94 -146 234 -207 421 -181 211 30 206 31 179 -60 -10
-33 -15 -62 -12 -65 23 -23 128 58 188 145 19 27 42 54 52 60 38 25 15 -69
-36 -142 -18 -27 5 -36 66 -25 83 16 126 46 161 115 19 39 43 47 94 34 46 -13
137 -71 125 -81 -4 -3 -33 -12 -63 -19 -212 -51 -420 -191 -540 -366 -41 -60
-85 -179 -106 -291 -19 -105 -15 -264 11 -359 34 -128 122 -276 210 -353 l36
-32 -243 0 c-136 0 -259 -5 -280 -10 -44 -13 -93 -52 -113 -91 -19 -36 -19
-122 0 -158 20 -39 69 -78 113 -91 24 -6 429 -10 1197 -10 1104 0 1162 1 1200
19 84 38 123 105 110 189 -9 58 -70 124 -130 141 -23 6 -122 11 -229 11 l-190
0 84 88 c45 48 122 128 170 177 48 50 109 123 135 162 l48 73 24 -33 c39 -51
63 -104 63 -137 0 -38 26 -40 69 -5 57 48 66 151 22 251 -28 63 -29 154 -1
179 16 14 30 17 72 12 29 -4 63 -9 76 -13 19 -5 22 -3 22 20 0 30 -48 133 -87
186 -14 19 -46 56 -70 81 l-45 46 38 8 c91 17 178 84 211 162 23 57 17 61
-104 60 -112 -1 -195 16 -241 49 l-23 16 33 24 c64 48 133 149 118 174 -7 12
-17 11 -63 -3 -86 -27 -202 -20 -251 16 -17 13 -15 15 27 36 48 23 86 65 110
122 24 56 86 119 142 143 32 15 66 40 91 70 90 109 109 128 145 147 21 10 53
19 71 19 43 -1 115 -34 154 -72 38 -36 70 -35 66 2 -6 55 -24 100 -57 146 -20
27 -45 65 -58 83 -34 54 -81 76 -153 75 l-62 -2 15 45 c11 33 14 68 11 127 -6
86 -28 152 -81 237 -56 92 -45 172 40 276 51 62 48 74 -19 75 -81 2 -150 -49
-189 -137 -10 -22 -29 -51 -43 -64 -44 -41 -69 -117 -69 -206 0 -44 5 -97 11
-118 l11 -39 -27 7 c-31 8 -66 12 -167 20 -70 6 -114 -5 -122 -31 -2 -6 22
-30 52 -53 101 -76 136 -161 115 -271 -6 -30 -11 -80 -11 -110 0 -91 -2 -93
-67 -85 -67 8 -125 32 -169 69 -49 41 -98 150 -113 247 -11 77 -11 90 8 154
12 39 26 99 32 135 13 71 39 138 61 157 36 29 85 17 128 -32 17 -19 38 -35 47
-35 15 0 16 11 11 103 -5 90 -24 209 -43 275 -8 29 7 28 45 -4 41 -34 58 -26
67 32 16 107 -39 268 -115 337 -37 33 -38 36 -18 41 37 10 119 7 154 -6 69
-25 69 22 1 123 -47 70 -85 96 -162 114 l-51 12 65 32 c36 17 91 36 123 42 64
13 74 32 35 70 -43 41 -108 62 -202 67 l-90 5 37 18 c20 11 60 21 89 23 29 2
56 5 61 5 17 2 5 39 -20 63 -58 54 -89 63 -213 62 -91 0 -127 -5 -172 -22 -32
-11 -58 -17 -58 -13 0 24 71 96 137 138 76 49 46 84 -74 85 -76 0 -170 -30
-242 -77 -30 -20 -56 -33 -59 -31 -7 8 41 78 88 127 22 23 40 48 40 56 0 32
-112 44 -182 19z m105 -32 c3 -3 -14 -30 -38 -60 -53 -64 -73 -122 -57 -159
15 -33 31 -32 78 6 66 53 175 100 246 106 l63 5 -62 -59 c-68 -64 -83 -88 -83
-131 0 -51 18 -56 106 -25 100 34 238 39 293 9 l35 -19 -58 -18 c-63 -19 -136
-79 -136 -110 0 -16 12 -17 113 -16 88 2 122 -2 160 -17 27 -10 45 -22 40 -26
-4 -4 -33 -15 -63 -24 -88 -28 -180 -93 -180 -128 0 -10 3 -18 8 -19 4 0 34
-2 67 -3 87 -5 138 -37 190 -118 l17 -28 -78 0 c-145 -1 -213 -25 -165 -58 14
-10 50 -42 82 -73 66 -65 99 -139 99 -225 l0 -54 -50 25 c-51 26 -100 33 -100
15 0 -6 7 -21 15 -33 22 -34 54 -168 61 -259 l7 -80 -34 21 c-47 29 -91 27
-129 -5 -44 -38 -65 -85 -88 -199 -28 -138 -73 -256 -134 -350 l-52 -80 -8 77
c-8 84 -31 147 -74 203 -25 34 -64 48 -64 23 0 -30 -95 -203 -148 -270 -58
-73 -144 -157 -204 -199 -36 -26 -37 -33 10 96 17 44 35 115 42 158 25 154
-13 325 -51 230 -84 -211 -203 -344 -341 -381 l-38 -10 19 37 c31 59 50 139
60 248 11 115 29 164 95 258 72 100 211 213 365 297 35 19 42 48 12 48 -34 0
-183 -51 -256 -87 -172 -86 -308 -219 -424 -414 -136 -228 -288 -428 -313
-413 -18 11 -2 200 22 279 36 116 84 191 184 290 67 65 122 108 200 154 59 35
110 70 113 79 11 26 -23 42 -65 29 -20 -6 -105 -11 -188 -12 -137 0 -154 2
-173 19 -16 15 -21 29 -19 55 l3 36 122 -3 c105 -3 128 -1 167 17 81 36 113
119 76 196 -33 68 -23 83 94 129 75 29 96 42 96 57 0 25 -4 24 -90 -11 -85
-35 -100 -37 -93 -12 2 11 24 26 53 36 66 24 88 41 73 57 -9 9 -21 8 -55 -6
-24 -9 -48 -19 -54 -22 -6 -2 -14 3 -17 12 -5 11 6 21 38 37 76 37 50 66 -29
33 -32 -14 -39 -14 -57 -1 -20 14 -19 15 25 35 46 20 58 37 33 47 -7 2 -42 -7
-77 -22 -52 -21 -76 -25 -117 -21 -37 4 -55 2 -63 -8 -14 -17 15 -35 55 -35
53 0 116 -22 136 -49 18 -22 20 -35 15 -81 -3 -30 -10 -68 -16 -85 -10 -29
-13 -30 -68 -30 -31 0 -68 -3 -83 -7 -24 -7 -26 -4 -64 98 -39 108 -49 124
-67 106 -7 -7 -1 -37 21 -96 29 -80 29 -86 12 -86 -11 0 -29 -12 -40 -27 -12
-14 -23 -24 -26 -21 -15 14 -56 149 -62 199 l-6 59 32 0 c77 0 140 54 122 104
-9 22 -17 26 -50 26 -42 0 -72 -22 -49 -36 7 -5 26 -7 43 -6 l30 3 -28 -26
c-18 -16 -40 -25 -61 -25 -38 0 -46 12 -46 66 0 39 12 47 135 84 112 35 144
66 155 150 5 41 10 48 65 86 33 23 104 66 159 95 54 28 117 71 140 94 42 41
76 55 139 55 23 0 38 10 63 38 81 96 254 189 287 156z m-1593 -1154 c80 -41
203 -242 236 -385 9 -38 21 -86 26 -107 9 -32 8 -40 -15 -70 -32 -42 -60 -105
-52 -118 4 -6 24 -10 46 -10 71 0 120 -72 89 -130 -6 -12 -37 -27 -78 -39 -40
-12 -78 -31 -91 -45 l-24 -25 -37 19 c-49 25 -96 72 -121 122 -23 46 -59 178
-59 219 0 20 -15 43 -53 82 -58 60 -105 81 -184 81 l-52 0 17 31 c27 47 76 67
145 59 53 -6 57 -4 57 15 0 31 -59 69 -141 90 l-73 19 34 21 c29 18 46 21 100
17 36 -2 80 -7 98 -11 29 -7 32 -5 32 17 0 43 -39 87 -105 118 l-39 19 29 12
c85 33 148 33 215 -1z m2702 -202 c-38 -57 -52 -100 -52 -164 0 -44 8 -68 45
-139 81 -154 92 -251 40 -364 -40 -84 -34 -93 40 -66 53 19 109 19 145 0 40
-20 39 -37 -1 -23 -79 27 -203 -19 -295 -109 -85 -84 -65 -116 26 -44 146 115
298 131 375 40 35 -42 31 -55 -9 -30 -45 28 -117 41 -168 30 -54 -13 -120 -60
-155 -110 -55 -79 -78 -102 -123 -122 -25 -11 -55 -28 -66 -39 l-22 -19 -6 35
c-11 57 -70 95 -134 87 -10 -2 -11 2 -3 17 12 23 25 162 25 277 0 94 -12 123
-87 202 -38 41 -46 53 -31 53 33 0 64 -12 64 -24 0 -7 16 -28 36 -47 86 -83
131 -202 119 -311 -7 -54 -6 -60 11 -56 27 5 46 80 41 158 -5 83 -45 166 -105
222 l-45 41 39 -6 c27 -4 49 -17 72 -42 33 -36 62 -41 62 -12 0 8 -9 40 -21
73 -23 67 -35 183 -24 240 l7 39 19 -75 c19 -74 77 -176 107 -188 27 -10 30
20 6 63 -67 119 -81 237 -40 327 30 65 52 92 91 112 46 24 48 20 17 -26z
m-1501 -164 c-89 -67 -175 -167 -222 -259 -36 -72 -41 -92 -50 -186 -10 -123
-36 -216 -78 -278 -17 -25 -27 -49 -24 -54 11 -18 116 2 182 34 81 40 172 130
221 217 57 102 59 104 60 51 0 -100 -38 -244 -96 -361 -57 -114 -43 -129 58
-61 148 99 327 307 375 437 10 26 20 46 24 46 3 0 18 -26 34 -57 33 -68 44
-167 26 -239 -19 -73 0 -80 54 -21 24 26 45 47 47 47 1 0 4 -35 4 -78 1 -52 8
-95 23 -132 33 -88 138 -264 237 -400 111 -151 170 -253 228 -391 58 -139 70
-214 63 -381 -4 -103 -11 -153 -32 -223 -65 -221 -212 -436 -385 -565 -332
-245 -797 -276 -1197 -79 -117 58 -114 51 -87 172 36 157 126 276 236 311 41
12 83 16 178 14 119 -3 128 -2 181 25 66 32 132 99 162 165 33 72 30 192 -7
302 -58 171 -129 290 -255 425 -130 139 -216 195 -302 195 -49 0 -73 -17 -102
-76 -16 -32 -46 -56 -84 -68 -21 -7 -21 -6 -7 40 19 64 18 90 -6 114 -31 31
-72 8 -139 -79 -67 -88 -81 -96 -81 -48 0 67 -46 84 -167 61 -112 -21 -230
-15 -299 15 -60 27 -125 89 -164 158 -57 101 -137 134 -223 90 l-47 -24 0 24
c0 33 26 80 53 95 12 7 47 17 77 23 42 9 55 16 55 30 0 34 -50 59 -126 63
l-71 4 33 34 c35 36 97 59 130 49 11 -4 26 -1 34 5 13 10 13 16 0 40 -14 27
-49 47 -92 53 -40 6 -35 14 22 42 49 25 64 27 133 23 65 -4 89 -10 147 -41 39
-21 102 -64 140 -97 98 -84 162 -114 225 -107 27 3 68 16 92 28 97 49 243 227
398 486 119 197 234 315 389 397 89 48 95 45 22 -10z m-592 -135 l31 -11 -54
-59 c-67 -72 -120 -165 -154 -267 -21 -65 -25 -98 -27 -212 l-3 -135 -28 -17
c-42 -26 -51 -23 -58 22 -10 66 -73 124 -169 154 -16 5 -16 8 -3 33 24 47 68
80 128 97 79 23 112 62 105 129 -5 58 -43 103 -94 113 -18 3 -33 10 -33 14 0
11 51 83 69 98 27 21 74 45 106 53 36 10 141 3 184 -12z m1315 -444 c10 -65
70 -177 117 -220 49 -44 110 -73 173 -81 25 -4 46 -10 46 -13 0 -12 -65 -69
-85 -75 -11 -3 -33 -7 -49 -10 -46 -8 -53 -22 -25 -52 40 -44 104 -67 207 -73
l93 -6 -23 -34 c-32 -48 -68 -72 -117 -78 -24 -3 -45 -12 -48 -20 -8 -21 33
-60 96 -91 48 -23 68 -27 144 -27 48 1 87 -2 87 -6 0 -13 -83 -81 -111 -91
-38 -13 -37 -29 5 -66 55 -48 137 -74 254 -80 56 -2 102 -7 102 -9 0 -2 -12
-20 -26 -38 -33 -44 -113 -83 -188 -93 -33 -4 -61 -12 -63 -18 -2 -7 17 -32
43 -55 73 -69 174 -210 174 -244 0 -4 -18 -4 -39 0 -109 18 -173 -94 -125
-220 23 -58 41 -137 38 -159 -6 -40 -15 -66 -22 -66 -4 0 -20 24 -34 52 -29
60 -93 138 -112 138 -7 0 -36 -38 -65 -84 -28 -47 -55 -88 -61 -91 -5 -3 4 25
19 64 61 146 82 257 82 420 -1 230 -89 445 -303 738 -169 232 -258 412 -258
524 0 50 46 209 60 209 4 0 11 -20 14 -45z m495 -356 c24 -26 32 -96 12 -112
-9 -8 -52 -12 -115 -12 -80 0 -108 4 -136 19 l-35 19 42 14 c25 9 55 30 75 53
30 35 37 38 85 39 41 1 56 -4 72 -20z m-1255 -649 c42 -50 76 -94 75 -98 0 -4
-35 -24 -77 -44 -42 -20 -96 -53 -119 -72 -22 -20 -43 -36 -46 -36 -2 0 -7 18
-11 40 -14 90 -102 143 -237 144 -43 0 -77 1 -76 2 17 15 128 73 182 95 59 23
181 55 222 58 6 1 46 -40 87 -89z m-305 -122 c38 -14 79 -57 86 -89 11 -51 8
-89 -9 -108 -9 -10 -32 -46 -50 -81 l-33 -62 -22 30 c-51 72 -145 100 -269 78
-42 -7 -95 -21 -116 -30 -22 -9 -41 -15 -43 -13 -6 7 28 80 55 116 53 71 116
142 136 153 49 26 203 30 265 6z m453 -103 c55 -107 89 -222 89 -302 0 -83
-16 -128 -66 -189 -68 -83 -203 -119 -290 -78 -87 41 -155 148 -155 244 0 125
127 287 289 368 65 33 86 40 93 30 5 -7 23 -40 40 -73z m-576 -180 c47 -19 82
-73 104 -160 11 -43 18 -80 17 -82 -2 -2 -19 3 -38 11 -125 51 -270 11 -401
-113 l-68 -63 0 111 c0 65 6 141 15 179 l16 68 69 27 c115 45 212 52 286 22z
m88 -279 c28 -14 73 -47 100 -74 l48 -50 -53 -11 c-146 -32 -247 -153 -294
-353 l-20 -90 -70 73 c-74 78 -132 175 -159 269 l-17 55 75 72 c143 138 263
171 390 109z m-492 -753 c57 -58 115 -117 131 -131 15 -14 27 -29 27 -34 0 -4
-93 -8 -207 -8 -188 0 -210 2 -249 21 -32 15 -48 32 -64 64 -26 53 -21 91 18
137 37 43 76 57 164 58 l77 0 103 -107z m1682 -53 l104 -115 -191 -3 -191 -2
-58 57 c-32 32 -58 60 -58 64 0 3 39 20 88 38 48 17 105 42 127 55 22 14 48
24 57 23 10 -1 65 -54 122 -117z m-1114 32 c52 -17 142 -38 200 -47 96 -16
108 -20 143 -53 20 -20 37 -40 37 -44 0 -4 -77 -8 -171 -8 l-171 0 -68 73
c-37 39 -80 87 -96 106 l-28 34 30 -16 c16 -8 72 -28 124 -45z"/>
<path d="M1980 4639 c-14 -6 -50 -7 -83 -4 -49 6 -61 4 -79 -11 -30 -28 -39
-59 -27 -94 19 -52 79 -66 133 -31 37 25 86 97 86 128 0 12 -1 23 -2 22 -2 0
-14 -5 -28 -10z"/>
<path d="M2262 4640 c-44 -19 -19 -35 52 -35 60 0 69 -3 86 -25 44 -57 15
-146 -57 -176 -32 -14 -33 -17 -33 -68 0 -104 -54 -201 -186 -335 -46 -47 -84
-91 -84 -98 0 -7 10 -15 23 -18 124 -29 270 12 338 94 16 20 29 41 29 48 0 27
-22 22 -53 -12 -17 -20 -50 -47 -72 -60 -40 -24 -131 -43 -173 -37 -21 3 -17
9 41 72 116 122 176 232 177 322 0 42 3 48 35 67 55 32 77 75 72 144 -3 49 -8
63 -34 89 -26 26 -41 32 -85 35 -29 1 -64 -2 -76 -7z"/>
<path d="M2796 1943 c-22 -23 16 -113 48 -113 7 0 18 -18 25 -39 12 -42 52
-81 81 -81 31 0 69 40 84 88 8 26 21 61 30 77 20 37 20 61 2 68 -18 7 -26 -1
-26 -25 0 -10 -9 -27 -20 -38 -16 -16 -25 -18 -40 -10 -11 6 -20 15 -20 20 0
5 -4 20 -10 34 -12 32 -38 25 -42 -11 -4 -34 -32 -52 -55 -37 -10 6 -19 23
-21 37 -3 25 -24 42 -36 30z"/>
<path d="M2470 1605 c0 -36 26 -82 50 -90 12 -4 24 -21 30 -45 27 -101 145
-90 164 16 4 21 14 47 23 56 21 23 23 81 3 85 -10 3 -19 -8 -25 -28 -6 -18
-18 -37 -28 -43 -15 -9 -22 -6 -38 13 -10 13 -19 32 -19 43 0 32 -31 17 -44
-22 -9 -28 -16 -35 -36 -35 -20 0 -27 7 -36 35 -14 43 -44 54 -44 15z"/>
<path d="M2597 1193 c-19 -18 -5 -67 28 -98 19 -18 37 -44 40 -58 9 -33 40
-65 71 -73 33 -8 76 22 87 62 5 16 17 45 26 64 28 55 33 86 16 100 -12 10 -16
8 -25 -15 -5 -14 -10 -30 -10 -35 0 -5 -9 -14 -20 -20 -15 -8 -24 -6 -40 10
-11 11 -20 29 -20 41 0 29 -32 21 -40 -10 -3 -13 -15 -30 -27 -38 -18 -12 -23
-12 -37 2 -9 9 -16 25 -16 34 0 21 -23 44 -33 34z"/>
</g>
</svg>
